<?xml version="1.0" standalone="no"?>
<!DOCTYPE svg PUBLIC "-//W3C//DTD SVG 20010904//EN"
 "http://www.w3.org/TR/2001/REC-SVG-20010904/DTD/svg10.dtd">
<svg version="1.0" xmlns="http://www.w3.org/2000/svg"
 width="1954.000000pt" height="2046.000000pt" viewBox="0 0 1954.000000 2046.000000"
 preserveAspectRatio="xMidYMid meet">

<g transform="translate(0.000000,2046.000000) scale(0.100000,-0.100000)"
fill="#000000" stroke="none">
<path d="M15050 17229 c-63 -10 -189 -30 -280 -44 -91 -14 -209 -33 -263 -42
l-99 -16 6 -31 c4 -17 14 -78 22 -136 9 -58 17 -106 17 -106 1 -1 34 3 72 8
47 7 79 6 97 -1 49 -19 48 -12 128 -533 19 -121 32 -206 80 -520 12 -73 27
-174 35 -224 17 -106 19 -168 5 -193 -11 -22 -68 -46 -132 -55 -27 -4 -48 -13
-48 -19 0 -16 41 -261 44 -264 1 -2 38 4 82 11 43 8 126 21 184 30 154 23 417
63 557 86 67 11 134 20 148 20 14 0 28 7 31 14 5 13 -20 219 -31 257 -4 13
-14 14 -65 5 -110 -18 -134 10 -161 191 -24 156 -24 157 -144 933 -52 344 -98
631 -100 638 -6 16 -46 14 -185 -9z"/>
<path d="M16435 16870 c-293 -44 -528 -207 -639 -445 -96 -206 -81 -523 36
-750 170 -329 542 -465 978 -356 356 90 523 262 569 587 6 37 8 71 6 74 -3 4
-39 1 -82 -5 -43 -7 -128 -21 -189 -30 l-112 -17 -6 -47 c-22 -166 -120 -263
-276 -277 -158 -14 -272 88 -316 286 -9 39 -15 72 -13 74 3 3 170 29 749 117
69 11 145 23 170 27 l45 8 -3 39 c-5 57 -47 220 -74 285 -93 227 -265 381
-476 425 -71 15 -279 18 -367 5z m177 -280 c77 -22 136 -98 162 -210 8 -35 14
-65 12 -67 -2 -3 -132 -23 -349 -56 -93 -14 -97 -11 -97 79 0 185 119 296 272
254z"/>
<path d="M11972 16812 c-75 -27 -122 -69 -161 -143 -31 -60 -33 -69 -29 -139
10 -163 122 -274 278 -274 114 0 209 59 256 159 35 73 40 126 19 201 -42 157
-213 249 -363 196z"/>
<path d="M13615 16435 c-306 -49 -528 -189 -645 -403 -150 -278 -96 -714 119
-954 142 -158 389 -250 630 -234 270 18 486 96 624 226 105 99 170 236 185
391 l8 79 -29 0 c-17 0 -82 -9 -146 -19 -64 -11 -137 -22 -162 -26 l-46 -6 -7
-53 c-13 -112 -78 -207 -169 -246 -67 -30 -195 -33 -244 -7 -91 48 -147 134
-177 266 -9 40 -16 74 -14 76 2 1 84 14 183 29 191 30 322 50 580 91 88 14
170 25 183 25 27 0 26 -8 3 115 -80 417 -317 643 -691 660 -57 3 -131 -1 -185
-10z m170 -294 c72 -32 129 -121 150 -233 l7 -35 -144 -22 c-79 -13 -178 -29
-220 -35 -90 -15 -88 -17 -88 78 0 74 21 152 52 191 28 36 113 75 163 75 22 0
58 -9 80 -19z"/>
<path d="M12260 16169 c-172 -28 -383 -61 -530 -83 -55 -8 -75 -15 -75 -26 0
-8 9 -70 19 -138 l19 -122 78 6 c125 11 134 -1 169 -234 51 -343 60 -401 70
-451 16 -86 13 -165 -7 -183 -19 -17 -66 -33 -125 -43 -21 -3 -38 -12 -38 -18
0 -19 30 -240 35 -253 3 -12 30 -8 310 35 72 11 191 29 265 41 339 51 430 67
436 73 6 5 -21 218 -32 256 -4 11 -18 12 -68 7 -35 -3 -75 -2 -89 3 -50 19
-50 20 -127 521 -11 69 -29 186 -40 260 -11 74 -27 180 -35 235 -21 138 -23
145 -43 144 -9 -1 -96 -14 -192 -30z"/>
<path d="M10850 15993 c-73 -12 -182 -48 -242 -80 -80 -42 -185 -135 -229
-204 -18 -27 -36 -46 -39 -42 -4 5 -13 48 -19 98 -7 49 -14 92 -16 95 -2 3
-84 -6 -182 -22 -180 -28 -389 -60 -541 -83 -45 -7 -85 -14 -87 -17 -3 -2 6
-65 18 -139 16 -91 27 -133 36 -131 7 1 45 5 86 9 69 5 75 4 98 -19 27 -27 32
-49 66 -268 11 -74 32 -207 46 -295 14 -88 25 -186 25 -217 0 -49 -4 -59 -25
-76 -14 -11 -57 -26 -95 -33 -52 -9 -70 -16 -70 -28 0 -33 33 -246 39 -253 4
-4 49 -1 101 7 105 16 285 43 490 75 74 12 193 30 264 40 71 11 131 21 133 23
4 4 -10 110 -28 214 l-11 63 -54 -6 c-62 -8 -98 9 -115 54 -10 25 -68 381 -91
550 -24 180 39 296 173 323 101 20 179 -19 216 -108 11 -27 30 -113 43 -193
12 -80 31 -199 41 -265 11 -66 23 -156 26 -200 7 -94 -1 -107 -70 -126 -23 -6
-48 -13 -55 -15 -11 -3 -12 -17 -7 -57 9 -69 34 -210 39 -214 5 -5 54 2 466
67 179 28 363 56 410 62 47 6 88 13 92 17 4 4 -2 67 -14 140 l-21 133 -78 -7
c-77 -7 -79 -7 -107 21 -30 31 -32 39 -92 439 -49 326 -85 453 -151 538 -47
62 -82 86 -157 113 -56 20 -85 23 -177 22 -60 0 -121 -3 -135 -5z"/>
<path d="M6055 15840 c-104 -16 -251 -38 -325 -50 -74 -12 -191 -30 -260 -40
-252 -38 -396 -61 -458 -71 l-63 -11 5 -32 c3 -17 13 -80 22 -141 9 -60 20
-113 23 -116 3 -4 45 -1 94 7 105 17 145 10 168 -32 16 -27 39 -149 88 -474
44 -284 72 -468 86 -555 30 -183 46 -317 39 -338 -11 -39 -35 -56 -90 -67 -30
-5 -78 -15 -108 -20 -43 -9 -53 -14 -50 -28 2 -9 13 -75 23 -145 11 -71 21
-130 23 -131 1 -2 71 7 153 20 83 13 209 33 280 43 794 120 935 146 1107 207
306 109 504 282 607 527 103 249 72 693 -68 982 -133 271 -325 415 -636 475
-162 31 -411 27 -660 -10z m298 -328 c127 -56 217 -215 277 -492 47 -219 65
-509 39 -643 -24 -125 -84 -209 -187 -261 -46 -23 -278 -73 -289 -62 -3 3 -13
60 -23 128 -10 68 -28 182 -39 253 -36 235 -72 468 -86 560 -45 299 -56 368
-65 415 -21 108 -23 105 83 119 50 7 99 14 107 16 36 8 129 -9 183 -33z"/>
<path d="M8430 15629 c-338 -34 -613 -153 -718 -310 -42 -61 -52 -97 -52 -176
0 -171 100 -268 275 -266 90 1 176 26 230 67 133 101 102 303 -54 356 l-53 18
45 26 c53 31 177 60 221 51 72 -15 125 -38 154 -68 79 -82 92 -228 27 -305
-34 -41 -121 -84 -295 -147 -324 -117 -432 -188 -481 -317 -58 -154 0 -382
122 -478 85 -67 144 -84 294 -84 153 0 248 22 384 87 81 40 193 132 219 181 9
18 13 17 60 -22 27 -23 76 -54 109 -69 160 -74 486 -15 598 108 83 93 101 205
70 441 -10 73 -19 134 -20 136 -3 4 -199 -28 -204 -34 -4 -3 14 -146 26 -205
7 -35 -26 -69 -68 -69 -25 0 -32 6 -43 33 -8 17 -35 169 -60 337 -59 384 -69
431 -106 506 -88 180 -296 242 -680 203z m199 -916 c30 -179 25 -225 -31 -289
-67 -76 -219 -72 -268 8 -46 76 -6 155 130 255 47 34 96 71 110 82 14 11 30
20 35 21 6 0 16 -35 24 -77z"/>
<path d="M16965 15018 c-56 -29 -103 -75 -131 -130 -19 -38 -24 -62 -24 -128
0 -99 25 -157 96 -219 55 -48 106 -66 192 -65 118 1 231 88 262 201 19 65 8
161 -25 220 -27 51 -97 113 -148 132 -50 19 -177 13 -222 -11z"/>
<path d="M16100 14834 c-203 -33 -385 -61 -522 -81 -137 -19 -125 1 -100 -173
l17 -115 81 3 c85 4 116 -5 133 -37 6 -10 22 -88 35 -172 26 -161 39 -242 127
-814 11 -71 29 -185 39 -251 11 -67 20 -136 20 -153 0 -46 -35 -77 -106 -91
-89 -17 -96 -20 -90 -36 3 -9 14 -69 23 -135 14 -92 21 -119 33 -119 8 0 84
11 170 25 213 34 528 82 689 106 74 11 136 21 138 23 2 1 -6 63 -17 136 -11
73 -20 134 -20 136 0 2 -24 1 -54 -2 -30 -4 -70 -4 -89 0 -46 9 -61 47 -87
215 -25 165 -52 338 -165 1071 -81 529 -74 490 -94 489 -9 -1 -81 -12 -161
-25z"/>
<path d="M15040 14670 c-63 -10 -241 -37 -395 -60 -154 -24 -281 -44 -283 -46
-2 -1 7 -64 19 -138 l23 -137 72 7 c95 9 116 2 137 -41 9 -19 35 -153 57 -297
39 -252 56 -365 100 -645 72 -472 71 -462 37 -497 -21 -21 -99 -46 -143 -46
-8 0 -17 -6 -20 -14 -5 -12 32 -255 40 -263 2 -2 50 3 107 12 57 9 163 25 234
36 225 34 376 57 510 78 72 12 136 21 143 21 16 0 15 35 -3 145 -25 150 -17
137 -85 129 -77 -9 -106 0 -125 36 -14 28 -40 162 -64 330 -6 41 -54 352 -106
690 -53 338 -99 639 -102 668 -4 39 -10 52 -22 51 -9 -1 -68 -9 -131 -19z"/>
<path d="M17420 14409 c-45 -9 -83 -15 -510 -79 -118 -18 -219 -37 -224 -41
-5 -5 -2 -52 8 -116 28 -171 15 -154 110 -147 129 10 120 31 202 -496 52 -336
51 -330 20 -367 -22 -26 -38 -33 -97 -43 l-71 -12 6 -32 c3 -17 13 -78 21
-136 9 -57 18 -106 20 -108 1 -2 59 6 126 17 134 23 579 92 749 117 134 19
142 22 136 42 -4 15 -36 233 -36 248 0 3 -30 3 -67 -1 -124 -12 -140 9 -172
223 -46 309 -92 601 -101 652 -5 30 -16 104 -25 163 -8 60 -17 113 -20 118 -7
10 -13 10 -75 -2z"/>
<path d="M11577 14199 c-60 -14 -110 -44 -151 -89 -54 -60 -70 -102 -70 -190
-1 -63 4 -85 27 -132 100 -204 388 -209 501 -8 28 49 31 64 30 135 0 94 -16
135 -73 198 -66 71 -178 108 -264 86z"/>
<path d="M10885 14060 c-22 -4 -93 -15 -158 -25 l-117 -17 -16 -57 c-9 -31
-17 -57 -18 -58 -1 -2 -55 11 -120 27 -107 27 -133 30 -280 30 -132 0 -182 -5
-276 -24 -255 -54 -435 -143 -583 -289 -227 -224 -325 -510 -295 -864 36 -441
219 -771 519 -932 201 -108 433 -142 724 -106 484 60 780 274 877 632 16 61
21 110 22 230 0 83 -2 154 -5 157 -4 5 -178 -18 -301 -40 l-36 -6 -4 -122 c-7
-194 -58 -309 -183 -412 -63 -53 -130 -81 -219 -95 -265 -41 -422 114 -516
509 -46 191 -64 340 -64 532 -1 164 1 193 21 255 57 181 179 269 373 268 114
0 178 -28 266 -118 60 -60 81 -91 132 -196 34 -68 64 -136 68 -151 5 -22 12
-28 32 -28 50 0 352 53 352 61 0 5 -16 111 -35 237 -20 125 -45 286 -56 357
-33 217 -40 255 -53 254 -6 -1 -29 -5 -51 -9z"/>
<path d="M14025 13885 c-44 -7 -212 -34 -374 -59 -161 -25 -295 -47 -297 -49
-2 -2 6 -64 19 -138 l22 -134 40 5 c148 18 158 8 190 -171 77 -440 86 -561 48
-635 -68 -130 -246 -167 -331 -70 -39 45 -56 101 -82 271 -12 77 -30 194 -40
260 -10 66 -31 197 -45 290 -15 94 -31 197 -36 231 l-10 61 -107 -18 c-127
-20 -323 -50 -522 -80 -80 -12 -151 -23 -159 -25 -11 -4 -12 -16 -7 -57 25
-181 32 -219 39 -219 4 0 34 3 66 7 44 5 66 3 89 -9 42 -21 45 -35 122 -551
47 -315 95 -437 205 -525 64 -51 124 -65 275 -64 158 0 226 15 345 73 95 47
178 118 242 209 l47 66 14 -100 c8 -54 15 -100 16 -101 1 -1 145 20 321 48
176 27 357 55 403 61 47 6 82 15 82 22 0 6 -9 65 -20 131 -11 66 -20 123 -20
128 0 4 -36 4 -80 1 -92 -8 -121 4 -139 58 -10 31 -171 1057 -171 1089 0 12
-45 9 -145 -6z"/>
<path d="M12015 13575 c-5 -2 -73 -13 -150 -25 -483 -72 -629 -97 -633 -109
-4 -13 13 -144 29 -221 l10 -46 69 10 c123 17 135 1 169 -219 12 -77 31 -194
41 -260 10 -66 26 -167 35 -225 24 -151 8 -179 -114 -202 -44 -8 -61 -16 -61
-27 0 -22 39 -253 43 -257 2 -2 48 3 103 12 101 15 140 21 619 94 149 23 275
43 280 45 8 2 4 48 -9 140 l-20 136 -73 -6 c-83 -8 -112 3 -131 52 -10 24 -47
257 -153 948 -25 170 -25 170 -54 160z"/>
<path d="M2788 12439 c-2 -41 -1 -77 2 -81 3 -4 76 -10 163 -14 l158 -7 -6
-56 c-3 -31 -7 -103 -8 -161 l-2 -105 62 -3 c75 -4 69 -16 79 180 l6 138 87
-6 c47 -4 87 -8 89 -9 2 -2 -2 -83 -8 -180 -6 -97 -9 -180 -6 -183 4 -3 33 -8
66 -10 56 -4 59 -3 64 19 6 30 29 499 24 503 -5 5 -448 35 -620 42 l-146 7 -4
-74z"/>
<path d="M3405 11200 c-148 -22 -480 -68 -558 -76 l-58 -7 6 -51 c12 -101 14
-106 43 -106 15 0 85 9 156 20 71 11 131 18 133 16 2 -2 4 -32 5 -66 l1 -63
-79 -76 c-43 -42 -105 -99 -138 -127 l-58 -51 12 -91 c7 -51 16 -92 19 -92 4
0 59 45 123 100 73 61 127 117 144 146 l27 46 20 -38 c41 -83 105 -123 192
-124 60 0 142 35 173 75 50 63 51 140 9 430 -17 114 -26 150 -37 152 -8 1 -69
-7 -135 -17z m46 -205 c4 -22 10 -79 14 -127 l7 -87 -30 -31 c-37 -37 -80 -40
-117 -7 -29 25 -50 95 -61 208 l-6 66 68 11 c110 16 118 14 125 -33z"/>
<path d="M11721 10935 c-104 -33 -206 -137 -231 -236 -7 -31 -10 -512 -8
-1634 l3 -1590 23 -46 c36 -74 87 -125 160 -161 l67 -33 1062 -3 1062 -2 58
21 c42 16 75 39 120 84 52 53 64 72 82 131 l21 69 -2 1575 c-3 1497 -4 1577
-21 1622 -35 89 -129 174 -226 204 -68 20 -2104 20 -2170 -1z m2017 -170 c71
-21 131 -70 167 -135 l30 -55 0 -1305 0 -1305 -25 -48 c-27 -55 -70 -96 -133
-129 l-42 -23 -925 0 -925 0 -50 27 c-27 14 -67 44 -87 65 -72 75 -68 -18 -68
1411 0 976 3 1295 12 1326 8 27 31 60 68 96 93 94 25 88 1041 89 766 1 892 -1
937 -14z m-875 -3099 c46 -20 75 -50 88 -95 16 -54 4 -106 -35 -148 -28 -31
-40 -37 -88 -41 -102 -8 -168 48 -168 144 0 110 104 183 203 140z"/>
<path d="M12644 9966 c-124 -29 -296 -129 -362 -212 -15 -19 -33 -34 -39 -34
-7 0 -13 -7 -13 -15 0 -8 -14 -36 -30 -62 -17 -26 -45 -83 -62 -128 -32 -79
-33 -82 -33 -245 0 -163 1 -166 33 -246 116 -291 365 -463 668 -464 124 0 227
25 339 83 110 57 233 180 292 293 204 388 14 865 -402 1012 -88 31 -293 40
-391 18z m226 -56 c16 0 17 -5 9 -37 -5 -21 -9 -65 -9 -98 -1 -116 -16 -188
-46 -214 -25 -21 -35 -23 -93 -19 -46 4 -81 14 -116 33 -45 24 -58 26 -125 22
-89 -5 -128 4 -160 39 -23 23 -24 27 -9 52 34 60 195 167 300 198 65 20 165
33 203 28 16 -2 36 -4 46 -4z m183 -44 c115 -48 258 -171 309 -269 31 -58 65
-140 72 -174 l7 -29 -91 -1 c-77 -1 -98 -5 -144 -28 -78 -39 -95 -68 -111
-183 -8 -53 -19 -125 -25 -160 -19 -110 9 -164 107 -209 29 -13 53 -26 53 -28
0 -11 -146 -98 -205 -121 -65 -25 -81 -27 -215 -28 -175 0 -225 13 -225 60 0
29 1 29 73 36 96 10 138 30 164 81 25 49 21 91 -23 237 -36 122 -61 171 -101
205 -54 45 -127 46 -213 3 -47 -23 -50 -27 -61 -81 -14 -71 -23 -82 -81 -96
-54 -14 -94 -7 -119 20 -9 10 -23 19 -30 19 -32 0 -39 205 -10 305 18 67 66
175 77 175 3 0 12 -7 20 -16 7 -8 31 -25 53 -37 34 -18 56 -21 125 -20 75 2
92 -1 154 -28 62 -28 78 -31 148 -27 66 3 81 7 105 28 48 45 65 99 74 248 5
75 9 138 10 140 1 9 54 -2 103 -22z m390 -636 c-1 -75 -7 -111 -28 -170 -24
-66 -102 -201 -125 -215 -4 -3 -37 9 -73 26 -85 39 -93 59 -72 178 8 47 17
111 20 141 3 30 14 66 24 78 26 35 113 62 191 59 l65 -2 -2 -95z m-791 -30
c29 -22 56 -86 93 -213 31 -108 31 -128 1 -156 -18 -17 -40 -23 -94 -28 -84
-7 -121 -26 -137 -72 l-11 -33 -71 53 c-84 64 -139 123 -181 199 l-31 56 72 0
c117 0 184 46 196 135 5 35 12 45 41 60 45 24 91 24 122 -1z"/>
<path d="M14984 10799 c-45 -13 -112 -82 -142 -147 l-27 -57 0 -1505 c0 -1459
1 -1507 19 -1555 28 -72 97 -142 159 -160 76 -22 1379 -22 1454 0 51 15 114
70 143 126 40 74 40 68 40 1590 0 1627 4 1524 -66 1621 -22 30 -53 56 -86 72
l-52 26 -705 -1 c-389 0 -720 -5 -737 -10z m1016 -134 l0 -35 -280 0 -280 0 0
35 0 35 280 0 280 0 0 -35z m530 -1505 l0 -1380 -810 0 -810 0 0 1380 0 1380
810 0 810 0 0 -1380z m-620 -1530 c24 -24 26 -57 3 -82 -14 -16 -34 -18 -194
-18 -172 0 -178 1 -193 22 -21 30 -20 54 4 78 18 18 33 20 190 20 157 0 172
-2 190 -20z"/>
<path d="M15575 9771 c-265 -57 -466 -258 -525 -528 -24 -110 -25 -164 -1
-279 43 -210 174 -380 366 -474 109 -54 179 -70 305 -70 127 0 196 16 309 71
103 51 217 156 277 256 245 410 14 934 -454 1027 -103 20 -174 19 -277 -3z
m217 -196 c7 -158 -2 -202 -43 -222 -38 -18 -109 -3 -156 34 -52 42 -97 63
-130 63 -26 0 -44 -9 -106 -53 -22 -16 -31 -17 -66 -7 -24 6 -48 21 -57 35
-14 21 -14 26 0 53 25 48 125 130 211 173 95 47 185 69 275 66 l65 -2 7 -140z
m169 92 c142 -63 252 -170 320 -312 44 -91 43 -92 -53 -97 -110 -6 -178 -41
-214 -110 -15 -29 -32 -145 -41 -278 -5 -83 -4 -87 23 -119 15 -18 54 -44 86
-58 32 -14 58 -31 57 -37 -1 -30 -170 -126 -269 -152 -70 -19 -223 -22 -275
-6 -25 7 -30 14 -28 37 3 35 27 61 83 90 25 13 56 35 70 50 22 23 25 35 24 93
-1 76 -48 239 -90 309 -50 87 -139 103 -249 48 -53 -27 -55 -30 -55 -67 0 -52
-15 -77 -56 -94 -46 -19 -103 -4 -152 41 l-37 34 2 85 c1 80 25 180 55 239 9
17 11 17 26 3 28 -24 105 -56 139 -56 21 0 47 12 77 35 26 19 54 35 64 35 10
0 42 -18 72 -40 64 -47 108 -64 176 -64 59 0 95 19 124 67 18 28 20 51 20 195
0 123 3 162 13 162 6 0 46 -15 88 -33z m373 -499 c27 -103 -42 -346 -126 -440
-16 -18 -27 -28 -24 -21 4 7 -21 24 -61 45 -91 44 -99 62 -79 170 9 46 18 108
21 139 10 92 62 126 196 128 61 1 67 -1 73 -21z m-773 -88 c27 -15 62 -89 93
-198 34 -122 34 -144 -5 -176 -17 -14 -36 -26 -43 -26 -26 0 -92 -69 -104
-109 l-12 -40 -38 17 c-131 62 -261 201 -307 331 l-14 41 28 -15 c110 -56 240
-1 256 109 6 39 11 46 44 60 43 18 75 20 102 6z"/>
<path d="M6292 10744 c-55 -38 -52 40 -52 -1425 l0 -1352 -192 -311 c-106
-171 -194 -323 -196 -337 -2 -15 1 -37 8 -49 28 -53 -112 -50 2520 -50 2622 0
2492 -3 2519 48 25 47 31 33 -245 502 l-109 185 -5 1373 -5 1374 -33 29 -32
29 -2078 0 c-1866 0 -2080 -2 -2100 -16z m4008 -1419 l0 -1205 -1910 0 -1910
0 0 1205 0 1205 1910 0 1910 0 0 -1205z"/>
<path d="M8140 10226 c-186 -36 -361 -130 -495 -265 -38 -39 -76 -71 -82 -71
-7 0 -13 -7 -13 -17 0 -9 -13 -37 -30 -62 -46 -73 -97 -189 -122 -282 -19 -71
-23 -108 -23 -234 1 -170 18 -255 80 -392 125 -274 376 -472 674 -533 607
-123 1162 359 1127 980 -13 237 -104 442 -272 611 -116 118 -271 208 -429 250
-100 26 -318 34 -415 15z m248 -92 c19 -5 22 -12 17 -33 -3 -14 -10 -90 -15
-169 -12 -169 -24 -223 -55 -252 -46 -43 -161 -35 -260 17 -45 24 -65 27 -185
33 -137 6 -163 12 -207 53 -29 26 -29 31 8 76 76 95 241 201 378 242 109 32
261 48 319 33z m203 -43 c248 -85 464 -311 529 -553 6 -21 14 -46 17 -54 4
-11 -10 -14 -79 -14 -228 0 -368 -101 -368 -266 0 -23 -9 -90 -21 -150 -42
-216 -16 -297 114 -360 40 -19 71 -37 70 -40 -3 -13 -103 -82 -154 -106 -174
-85 -350 -111 -538 -78 -104 18 -141 34 -141 65 0 33 12 39 122 51 113 13 165
40 198 104 30 58 25 118 -21 280 -49 171 -75 233 -120 285 -80 90 -178 97
-326 23 l-61 -31 -7 -61 c-4 -34 -11 -71 -16 -83 -25 -65 -225 -84 -244 -23
-3 10 -16 20 -28 22 -19 3 -24 13 -33 68 -17 97 -16 169 5 277 22 111 52 195
99 272 1 3 12 -5 25 -17 12 -11 49 -33 82 -49 56 -25 68 -27 171 -25 101 2
114 0 157 -22 154 -82 332 -74 402 18 41 54 56 113 66 271 13 188 17 215 33
215 7 0 37 -8 67 -19z m566 -826 c-8 -117 -37 -235 -82 -330 -36 -76 -118
-195 -134 -195 -25 0 -160 70 -175 91 -20 29 -21 93 -1 171 9 33 20 105 25
160 8 95 10 102 42 135 44 46 102 61 227 62 l104 1 -6 -95z m-1042 -71 c35
-37 59 -95 101 -239 65 -229 54 -257 -107 -270 -52 -4 -106 -13 -120 -21 -34
-17 -69 -61 -69 -85 0 -26 -8 -24 -70 17 -108 71 -194 162 -261 276 -21 36
-39 68 -39 70 0 2 33 2 74 0 81 -4 158 14 210 51 32 23 62 82 72 146 6 38 12
45 48 62 23 10 63 19 89 19 39 0 52 -5 72 -26z"/>
<path d="M3505 9804 c-93 -23 -200 -80 -246 -133 -73 -83 -84 -112 -84 -231 0
-117 18 -174 81 -258 41 -54 68 -76 136 -107 133 -62 364 -9 484 112 20 20 50
65 66 100 28 60 30 70 26 156 -3 77 -9 103 -35 158 -83 179 -234 250 -428 203z
m178 -155 c120 -33 184 -188 122 -295 -47 -80 -168 -138 -291 -139 -61 0 -76
4 -113 28 -49 32 -91 110 -91 167 0 40 38 127 66 151 39 33 112 69 169 83 75
18 91 18 138 5z"/>
<path d="M4160 8450 c-113 -71 -252 -158 -310 -194 -58 -36 -111 -70 -119 -75
-10 -7 -6 -21 24 -67 21 -33 39 -61 41 -63 2 -2 99 56 216 129 117 74 224 141
238 149 32 20 -17 -35 -217 -243 -84 -87 -153 -162 -153 -166 0 -19 74 -120
88 -120 15 0 382 115 481 151 29 11 55 18 57 16 5 -4 -258 -171 -403 -256 -28
-17 -54 -35 -58 -41 -3 -5 10 -37 31 -70 42 -68 28 -69 156 12 37 24 143 90
235 147 313 194 306 189 290 214 -8 12 -33 54 -57 92 -24 39 -46 73 -50 78 -3
4 -116 -26 -250 -68 -134 -41 -245 -73 -247 -71 -2 2 75 88 172 191 165 176
175 189 162 209 -7 11 -35 56 -61 99 -27 42 -51 77 -55 77 -3 -1 -98 -59 -211
-130z"/>
<path d="M5826 6679 c-3 -8 -26 -124 -52 -259 l-46 -244 -111 -119 -111 -119
51 -49 c28 -27 56 -49 61 -49 6 0 59 51 119 114 l108 114 185 47 c102 26 212
54 245 62 33 8 64 18 68 22 5 5 -21 34 -57 65 l-65 57 -43 -11 c-24 -6 -96
-28 -160 -47 -65 -20 -120 -34 -123 -31 -3 3 11 76 30 163 20 88 34 164 33
169 -2 6 -31 37 -65 70 -43 40 -64 54 -67 45z"/>
<path d="M15447 6068 c-37 -24 -67 -49 -67 -56 0 -23 158 -793 164 -799 2 -2
35 16 74 42 l70 46 -19 72 c-10 40 -19 81 -19 92 0 15 32 40 117 95 64 41 122
76 127 78 6 1 42 -20 80 -48 38 -27 72 -50 77 -50 12 0 139 83 139 91 0 4 -24
23 -52 42 -29 19 -99 68 -155 109 -57 40 -141 100 -188 133 -47 33 -128 90
-180 128 -51 37 -95 67 -97 67 -2 0 -34 -19 -71 -42z m226 -256 c54 -40 97
-77 95 -83 -2 -5 -37 -31 -78 -58 l-75 -49 -26 107 c-38 156 -41 173 -26 164
7 -4 57 -41 110 -81z"/>
<path d="M6885 5641 c-109 -29 -209 -121 -278 -257 -98 -194 -14 -412 197
-509 193 -87 395 4 506 230 98 199 23 403 -186 506 -51 25 -80 33 -137 35 -40
2 -85 0 -102 -5z m190 -160 c79 -36 133 -124 122 -203 -14 -106 -130 -252
-219 -277 -142 -40 -284 96 -248 237 35 142 155 262 260 262 25 0 63 -9 85
-19z"/>
<path d="M14315 5439 c-93 -44 -201 -94 -240 -111 -38 -16 -74 -34 -79 -39 -9
-8 27 -95 138 -334 29 -60 79 -167 111 -237 33 -71 65 -128 71 -128 7 0 92 38
191 83 98 46 212 99 253 117 41 19 77 35 79 37 4 3 -50 123 -55 123 -1 0 -84
-38 -185 -85 -101 -47 -188 -85 -195 -85 -6 0 -29 40 -51 89 l-41 89 161 73
c89 40 168 78 174 84 10 8 7 23 -15 68 l-27 57 -140 -63 c-77 -35 -155 -71
-173 -81 -19 -10 -35 -16 -37 -14 -14 15 -64 143 -58 149 5 4 86 43 181 87 95
44 175 82 178 84 8 9 -47 118 -59 117 -7 0 -88 -36 -182 -80z"/>
<path d="M8095 5041 c-6 -15 -46 -122 -141 -379 -65 -174 -67 -260 -10 -335
77 -101 258 -168 388 -143 80 15 138 94 211 286 101 269 125 337 129 353 2 15
-11 24 -66 44 -38 14 -72 21 -77 16 -5 -5 -22 -47 -39 -93 -17 -47 -37 -101
-44 -120 -7 -19 -29 -78 -49 -131 -62 -170 -87 -205 -150 -216 -45 -7 -138 34
-163 72 -31 47 -21 98 59 315 41 113 83 222 92 243 16 38 13 57 -8 57 -7 0
-38 11 -69 24 -51 21 -58 22 -63 7z"/>
<path d="M12940 4911 c-184 -50 -290 -84 -290 -94 0 -5 18 -66 39 -136 21 -69
60 -198 86 -286 26 -88 57 -193 69 -232 15 -52 26 -73 37 -73 32 0 344 101
384 124 99 59 139 138 138 271 -1 183 -99 371 -221 423 -80 34 -125 35 -242 3z
m167 -139 c41 -22 65 -54 96 -127 58 -141 54 -267 -10 -311 -27 -18 -100 -45
-189 -69 -19 -5 -23 3 -44 72 -12 43 -41 141 -65 218 -62 203 -65 186 30 212
98 26 140 27 182 5z"/>
<path d="M9390 4648 c0 -7 -9 -78 -20 -158 -30 -224 -68 -500 -76 -551 l-6
-45 78 -11 c44 -5 80 -10 81 -9 0 1 11 71 23 156 12 85 22 156 24 157 10 10
102 -19 123 -38 14 -13 59 -91 100 -174 l74 -150 87 -12 c48 -7 90 -11 94 -10
13 4 -124 285 -158 325 -36 42 -32 52 20 52 38 0 113 57 135 104 23 46 29 145
12 189 -17 45 -70 95 -119 112 -26 8 -123 27 -217 40 -267 39 -255 38 -255 23z
m281 -163 c55 -8 111 -22 124 -31 47 -31 42 -116 -10 -150 -24 -15 -36 -16
-146 -4 -66 7 -122 16 -124 20 -3 4 1 46 7 94 13 99 0 93 149 71z"/>
<path d="M11778 4651 c-26 -4 -49 -9 -52 -11 -4 -4 17 -147 94 -633 10 -65 21
-121 24 -124 5 -5 145 12 151 19 2 2 -3 44 -11 93 -7 50 -22 146 -33 215 -11
69 -29 186 -40 260 -31 199 -28 190 -59 189 -15 -1 -48 -5 -74 -8z"/>
</g>
</svg>
